<svg width="14" height="14" viewBox="0 0 14 14" fill="none" xmlns="http://www.w3.org/2000/svg">
<path fill-rule="evenodd" clip-rule="evenodd" d="M13.4902 3.24758L11.3268 0.999268L10.3071 2.05897L11.2395 3.02799H10.9431C10.1946 3.02799 9.58669 3.02799 9.08767 3.07296C8.57062 3.12092 8.11487 3.22135 7.68507 3.45517C7.36365 3.63012 7.06949 3.85448 6.81251 4.12067C6.9863 4.4152 7.12259 4.72022 7.24086 5.02749C7.32235 5.23958 7.40167 5.47191 7.48027 5.71922C7.58916 5.48315 7.69373 5.32727 7.80983 5.20361C7.96896 5.03485 8.1527 4.89322 8.35428 4.78393C8.55259 4.67526 8.79922 4.60481 9.21459 4.56659C9.64222 4.52762 10.1874 4.52687 10.9756 4.52687H11.2395L10.3071 5.49589L11.3268 6.5556L13.4902 4.30728L14 3.77743L13.4902 3.24758ZM5.44669 10.9293C5.27934 10.6403 5.13603 10.3369 5.01834 10.0225C4.9319 9.7942 4.85206 9.56327 4.77892 9.33001C4.69753 9.51979 4.58614 9.69407 4.44937 9.84563C4.29023 10.0144 4.10649 10.156 3.90491 10.2653C3.7066 10.374 3.45998 10.4452 3.04461 10.4826C2.61698 10.5216 2.0718 10.5224 1.28361 10.5224H0V12.0212H1.31606C2.06459 12.0212 2.6725 12.0212 3.1708 11.9763C3.68858 11.9283 4.14433 11.8279 4.57412 11.5941C4.89554 11.4191 5.18971 11.1955 5.44669 10.9293Z" fill="#2C82F9"/>
<path d="M0 3.24756H1.28361C2.83548 3.24756 3.61141 3.24756 4.24024 3.5893C4.5087 3.73567 4.75328 3.9251 4.96497 4.15063C5.46111 4.67749 5.68394 5.45016 6.1296 6.99475C6.57526 8.53934 6.79881 9.31201 7.29422 9.83886C7.50623 10.0644 7.7507 10.254 8.01968 10.4002C8.64778 10.7419 9.42372 10.7419 10.9763 10.7419H12.9803M12.9803 10.7419L10.8169 8.49362M12.9803 10.7419L10.8169 12.9902" stroke="#2C82F9" stroke-width="1.3"/>
</svg>
