<svg fill="#FFFFFF" xmlns="http://www.w3.org/2000/svg"  viewBox="0 0 16 16" width="64px" height="64px"><path d="M 14.992188 4.777344 C 14.929688 6.128906 13.980469 7.976563 12.136719 10.320313 C 10.234375 12.773438 8.625 14 7.304688 14 C 6.488281 14 5.800781 13.253906 5.234375 11.761719 C 4.859375 10.390625 4.480469 9.023438 4.105469 7.652344 C 3.6875 6.160156 3.238281 5.414063 2.757813 5.414063 C 2.652344 5.414063 2.285156 5.632813 1.65625 6.066406 L 1 5.226563 C 1.691406 4.625 2.371094 4.023438 3.042969 3.421875 C 3.964844 2.632813 4.65625 2.21875 5.117188 2.175781 C 6.207031 2.074219 6.878906 2.8125 7.128906 4.390625 C 7.402344 6.097656 7.589844 7.15625 7.695313 7.570313 C 8.007813 8.984375 8.355469 9.691406 8.730469 9.691406 C 9.023438 9.691406 9.464844 9.230469 10.050781 8.3125 C 10.636719 7.398438 10.953125 6.699219 10.996094 6.21875 C 11.078125 5.425781 10.765625 5.03125 10.050781 5.03125 C 9.71875 5.03125 9.371094 5.105469 9.015625 5.257813 C 9.703125 3.023438 11.019531 1.941406 12.960938 2.003906 C 14.398438 2.046875 15.074219 2.96875 14.992188 4.777344 Z"/></svg>